<svg width="258" height="109" viewBox="0 0 258 109" fill="none" xmlns="http://www.w3.org/2000/svg">
<path d="M16.8231 107C33.323 110 29.8231 100.883 22.3231 100C13.8231 99.0001 7.32307 87.5004 7.32307 48.5003C7.32307 17.3003 18.3231 6.83368 23.8231 5.50035C31.4231 5.50035 33.6564 12.167 33.8231 15.5003V86.5004C33.8231 97.0002 47.8231 108.5 54.8231 108.5H94.8231C105.823 108.5 116.823 96.0002 116.823 84.0002V14.0003C116.823 7.50035 120.823 5.50035 125.323 5.50035C133.823 5.50035 135.823 8.50035 135.823 15.5003L136.823 84.0002C136.823 97.5001 147.823 108.5 158.323 108.5H197.823C209.323 108.5 219.323 92.5001 219.323 84.0002V12.0003C219.323 6.40035 224.323 6.00035 229.823 6.00035C237.423 6.00035 239.323 8.00024 239.323 13.5003V108.5H256.823V13.5003C257.223 3.90035 249.99 0.833612 246.323 0.500244H224.823C215.323 0.500244 212.323 8.50014 212.323 15.0002V82.0004C212.323 92.5004 201.99 100.5 196.823 100.5H174.323C161.323 100.5 154.323 91.0002 154.323 80.0002V16.0002C154.323 2.00021 147.823 1.00038 140.323 1.00035H122.323C111.823 1.00035 109.823 6.00035 109.823 13.0003L109.323 82.0004C109.323 92.0005 99.8231 100 92.8231 100C87.3231 100 80.0151 100.383 70.8231 100C58.8231 99.5004 52.3231 90.0005 52.3231 82.0004L51.8231 17.0003C51.8231 3.50045 39.6564 0.667015 35.3231 0.500349L22.823 1.00024C12.823 1.00024 5.82298 16.5003 3.32307 25.5003C-0.287914 38.5003 -4.04794 103.205 16.8231 107Z" fill="#C8A668" stroke="#C8A668"/>
</svg>
