<svg width="167" height="111" viewBox="0 0 167 111" fill="none" xmlns="http://www.w3.org/2000/svg">
<path d="M24.0909 110.375C31.0909 109.375 28.5909 102.875 24.5908 102.875C12.0909 101.875 6.09084 82.875 7.59084 50.375C9.09084 17.875 17.0491 6.80065 25.0908 7.375C32.0909 7.87495 33.5908 12.8749 33.5908 14.875V88.875C33.5908 101.375 40.0908 110.375 54.591 110.375H105.591C121.351 110.375 127.924 92.0417 128.091 85.375L128.591 14.875C128.591 8.37501 131.591 7.37501 138.091 7.375C146.131 7.37499 147.591 10.875 147.591 15.875V110.375H165.591V13.375C165.591 4.575 157.591 2.87502 152.591 2.87502C146.591 2.54168 130.591 2.87502 130.591 2.87502C125.091 2.87502 121.091 10.375 121.091 14.875C121.091 36.2083 120.591 76.375 120.591 84.375C120.591 92.875 110.591 102.875 105.091 102.875H70.091C60.591 102.875 52.5908 92.875 52.5908 82.875V28.875C52.1908 12.875 48.6293 7.87502 44.5908 5.37501C34.0908 -1.12498 23.0908 -1.12503 15.0909 5.37501C6.59082 14.875 4.09082 20.375 2.0908 30.875C1.21168 35.4904 0.186432 50.7284 0.590899 62.875C0.590899 75.875 4.41287 91.7442 5.09086 93.875C8.59086 104.875 15.0909 109.875 24.0909 110.375Z" fill="#C8A668" stroke="#C8A668"/>
</svg>
