<svg width="231" height="109" viewBox="0 0 231 109" fill="none" xmlns="http://www.w3.org/2000/svg">
<path fill-rule="evenodd" clip-rule="evenodd" d="M24.0481 107.5C31.5481 107 27.5481 101 24.0481 101C11.3486 98.6189 9.29423 84.2287 8.07684 75.7015L8.04807 75.5C2.44807 36.3 14.0481 9.74139 19.0481 7.5C29.5481 2.79311 33.0481 8 33.0481 14V108H53.0481V69.5C69.8481 70.3 79.3814 74.5 82.0481 76.5C80.6962 100.834 81.7811 101.612 86.7669 105.189C87.3132 105.581 87.9063 106.006 88.5481 106.5C95.0481 109.5 109.348 110.1 108.548 96.5C107.748 82.9 95.2148 73.5 89.0481 70.5V22C89.0481 12 98.5481 6 102.048 6H133.548C141.048 6 145.548 14 145.548 19V107H180.048V6C179.619 5.91417 179.869 5.91674 182.071 5.93943C184.145 5.9608 187.949 6 194.548 6C207.548 6 211.548 11.5 211.548 18V107.5H229.548C229.715 83 230.048 30.8062 230.048 18C230.048 8 218.548 1 210.048 1H166.048C168.848 1.8 172.215 7.83333 173.048 10.5L172.548 100H164.548V20C164.548 9 152.381 1.5 146.548 0.5H101.548C90.5481 0.5 82.0481 14 82.0481 20V67.5L53.0481 62C52.5481 49.6667 52.0481 18.5 52.0481 18.5C52.0481 11 45.548 0.5 37.5481 0.5H29.5481H21.0481C13.5481 0.5 1.54809 14 0.548101 55.5C-0.463935 97.5 14.728 108.121 24.0481 107.5ZM89.0481 78V95.5C89.0481 98 92.0481 101.5 98.0481 101C103.548 100.542 101.548 91.5 99.0481 87.5C96.5481 83.5 89.0481 78 89.0481 78Z" fill="#C8A668"/>
<path d="M8.07684 75.7015C9.29423 84.2287 11.3486 98.6189 24.0481 101C27.5481 101 31.5481 107 24.0481 107.5C14.728 108.121 -0.463935 97.5 0.548101 55.5C1.54809 14 13.5481 0.5 21.0481 0.5H29.5481H37.5481C45.548 0.5 52.0481 11 52.0481 18.5C52.0481 18.5 52.5481 49.6667 53.0481 62L82.0481 67.5V20C82.0481 14 90.5481 0.5 101.548 0.5H146.548C152.381 1.5 164.548 9 164.548 20V100H172.548L173.048 10.5C172.215 7.83333 168.848 1.8 166.048 1H210.048C218.548 1 230.048 8 230.048 18C230.048 30.8062 229.715 83 229.548 107.5H211.548V18C211.548 11.5 207.548 6 194.548 6C187.949 6 184.145 5.9608 182.071 5.93943C179.869 5.91674 179.619 5.91417 180.048 6V107H145.548V19C145.548 14 141.048 6 133.548 6H102.048C98.5481 6 89.0481 12 89.0481 22V70.5C95.2148 73.5 107.748 82.9 108.548 96.5C109.348 110.1 95.0481 109.5 88.5481 106.5C87.9063 106.006 87.3132 105.581 86.7669 105.189C81.7811 101.612 80.6962 100.834 82.0481 76.5C79.3814 74.5 69.8481 70.3 53.0481 69.5V108H33.0481V14C33.0481 8 29.5481 2.79311 19.0481 7.5C14.0481 9.74139 2.44807 36.3 8.04807 75.5M8.07684 75.7015L8.04807 75.5M8.07684 75.7015C8.0672 75.634 8.05761 75.5668 8.04807 75.5M89.0481 78V95.5C89.0481 98 92.0481 101.5 98.0481 101C103.548 100.542 101.548 91.5 99.0481 87.5C96.5481 83.5 89.0481 78 89.0481 78Z" stroke="#C8A668"/>
</svg>
