<svg width="170" height="110" viewBox="0 0 170 110" fill="none" xmlns="http://www.w3.org/2000/svg">
<path d="M2.03333 80.4999C5.23333 100.9 17.7 107.167 23.5333 108C29.0333 108.5 30.0333 100 22.0333 100C11.2404 98.8 10.5333 82 8.03333 73.5C1.53333 38.1403 16.5333 13.5 24.5333 9C30.9333 5.4 37.2 4.83333 39.5333 5C14.0333 31 22.5332 71 26.0333 85.5C30.084 102.281 49.5333 109 61.5333 108C71.1333 107.2 78.8667 98.6667 81.5333 94.5C84.7333 103.7 98.0332 109 105.533 109C125.533 109 131.533 97.5 135.533 89.5C139.533 81.5 141.033 56 139.033 36C137.433 20 130.367 9.33333 127.033 6L141.533 6.5C148.533 6.5 149.867 16.6667 149.533 20V108H169.033L168.533 22C168.533 11.5 157.533 -0.5 142.033 0.999946L112.033 0.5C105.033 0.5 105.033 6 112.033 6C116.033 6 119.7 8 121.033 9C131.433 17.4 134.033 45.1667 134.033 58C131.533 99.5 116.033 101.5 105.533 99C97.1333 97 87.7 82.8333 84.0333 76C64.0333 115 46.0332 98 42.5333 88C39.1054 78.2056 37.5333 56.1667 38.0333 46C43.0333 13 44.9989 9.40509 54.5333 5.99995C61.5332 3.5 59.0332 0.999946 54.5333 0.999946L31.0332 1.5C17.5332 2.5 7.03319 22.5 5.53333 25.9999C2.81427 32.3449 -1.96667 54.9999 2.03333 80.4999Z" fill="#C8A668" stroke="#C8A668"/>
</svg>
