<svg width="231" height="110" viewBox="0 0 231 110" fill="none" xmlns="http://www.w3.org/2000/svg">
<path d="M22.5 109.375C31 108.375 29.5 101.875 24.5 101.875C10.9907 100.275 7 77.3745 7 65.8745C7 23.8745 13 11.3745 19.5 7.87451C29.5 3.07451 33.5 9.87451 33.5 14.8745V87.3745C33.5 99.8745 42 109.375 54.5 109.375H108C119 109.375 127.5 99.8745 127.5 93.3745V64.3745C127.5 55.3745 118.5 47.8745 109 48.3745C109 48.3745 98.1894 48.861 87 48.3745C75.5 47.8745 73.5 41.3745 73.5 36.8745V25.3745C73.5 12.3745 77.5 6.87451 82.5 6.87451L128 6.37451C140 6.37451 146 15.3745 146 21.8745V109.375H180V6.87451H194.5C209 6.87451 211.5 16.3745 211.5 20.8745V109.375H230.5V25.8745C230.5 8.37451 215.5 1.87456 208.5 1.87456H166C168 3.87451 172.5 6.37451 172.5 10.8745V100.375H164V23.8745C164 7.37451 150.5 1.87456 140 1.87456L80.5 1.87451C73 2.37451 66.5 11.8745 66.5 19.3745V35.8745C66.5 47.3745 74.5 55.3745 81 55.3745H106C117.5 55.3745 121 62.3745 121 66.8745V88.3745C121 97.8745 115 100.875 111.5 100.875C100 100.875 76.588 101.354 67 100.875C57 100.374 52 92.3745 52 86.3745V26.3745C53.2 10.3745 45.1667 3.37454 41 1.87456C23 -2.12544 14.5 3.54122 12.5 6.87456C4 17.3746 0.5 32.3746 0.5 61.8746C0.5 91.3746 11.7804 110.636 22.5 109.375Z" fill="#C8A668" stroke="#C8A668"/>
</svg>
