<svg width="245" height="109" viewBox="0 0 245 109" fill="none" xmlns="http://www.w3.org/2000/svg">
<path d="M31.7168 73.5V66C22.7168 69 6.13743 57 7.21679 40C9.21679 8.5 20.615 6 31.7168 6C41.2168 6 42.7168 10 42.7168 17V108.5H76.2168V31C77.2168 13.5 90.7168 6 97.7168 6H110.717H111.217C128.217 6 134.217 20 134.217 29V108.5H168.717V26.5C168.717 14 181.217 6 186.717 6H205.217C219.217 6 225.717 20.5 225.717 28.5V108.5H243.717V28C243.717 15 228.717 0.5 219.717 0.5L186.717 1C172.217 1 161.217 17.5 161.217 28V100.5H152.217L152.217 28C152.217 9 134.717 0.5 126.717 0.5L96.7168 1C83.7168 1 69.7168 16 69.7168 29L69.2168 99.5H60.7168V19.5C60.7168 8.5 49.7168 1 42.7168 1H35.2168H25.2168C12.2168 1.5 5.38346 15.3333 3.21679 21C1.88346 24.5 -0.77766 35.5444 1.21679 51.5C3.21679 67.5 21.2168 74.5 31.7168 73.5Z" fill="#C8A668" stroke="#C8A668"/>
</svg>
