<svg width="233" height="110" viewBox="0 0 233 110" fill="none" xmlns="http://www.w3.org/2000/svg">
<path d="M20.2052 108.309C32.2052 110.309 28.7052 99.809 22.7052 100.809C7.20517 100.809 6.2052 54.309 6.7052 42.309C7.2052 30.309 12.7052 9.30898 21.7052 5.80898C28.9052 3.00898 33.2052 8.80906 33.2052 12.809V97.8091C33.2052 105.309 42.2052 108.309 47.2052 108.309H109.205C116.705 108.309 115.205 100.309 109.705 100.309C100.705 100.309 100.205 93.809 94.7052 87.309C90.3052 82.109 80.5385 81.4757 76.2052 81.809C71.2052 81.809 73.7052 87.309 76.2052 87.309C87.0052 88.909 93.0385 96.6423 94.7052 100.309L59.2052 100.809C54.0052 100.809 51.7052 100.809 51.7052 93.809L51.2052 18.809C51.2052 9.30906 45.2052 0.809056 37.2052 0.809056H21.7052C17.7052 0.809056 9.10517 8.00904 4.70517 18.809C0.305172 29.609 0.205172 59.3091 0.705172 72.8091C0.705172 98.8091 13.8719 107.309 20.2052 108.309Z" fill="#C8A668"/>
<path d="M70 26.3091C70 29.309 62 31.309 62 26.3091C61.8333 20.9757 63.5 9.10906 71.5 4.30906C81.5 -1.69094 106.5 0.309055 111 10.3091C113 7.97572 119 2.90906 127 1.30906C135 -0.290944 143.5 0.808989 147 1.80899C154 3.80899 167.5 13.3091 167.5 26.3091V100.809H175V8.80899C174.155 6.69612 170.453 2.08327 168.421 1.30906H167.5C167.732 1.15422 168.048 1.16721 168.421 1.30906H213.5C219.167 1.30903 232.5 6.30899 232.5 19.309V108.809H214V21.309C214 16.3091 211.8 7.10899 203 6.30899H182V108.809H149V19.809C148.333 15.309 144.4 6.30899 134 6.30899C121 6.30899 113.5 16.809 109.5 28.809C107.5 21.1423 100.3 5.90899 87.5 6.30899C71.5 6.80899 69.5 15.8091 70 26.3091Z" fill="#C8A668"/>
<path d="M22.7052 100.809C28.7052 99.809 32.2052 110.309 20.2052 108.309C13.8719 107.309 0.705172 98.8091 0.705172 72.8091C0.205172 59.3091 0.305172 29.609 4.70517 18.809C9.10517 8.00904 17.7052 0.809056 21.7052 0.809056H37.2052C45.2052 0.809056 51.2052 9.30906 51.2052 18.809L51.7052 93.809C51.7052 100.809 54.0052 100.809 59.2052 100.809L94.7052 100.309C93.0385 96.6423 87.0052 88.909 76.2052 87.309C73.7052 87.309 71.2052 81.809 76.2052 81.809C80.5385 81.4757 90.3052 82.109 94.7052 87.309C100.205 93.809 100.705 100.309 109.705 100.309C115.205 100.309 116.705 108.309 109.205 108.309H47.2052C42.2052 108.309 33.2052 105.309 33.2052 97.8091V12.809C33.2052 8.80906 28.9052 3.00898 21.7052 5.80898C12.7052 9.30898 7.2052 30.309 6.7052 42.309C6.2052 54.309 7.20517 100.809 22.7052 100.809ZM70 26.3091C70 29.309 62 31.309 62 26.3091C61.8333 20.9757 63.5 9.10906 71.5 4.30906C81.5 -1.69094 106.5 0.309055 111 10.3091C113 7.97572 119 2.90906 127 1.30906C135 -0.290944 143.5 0.808989 147 1.80899C154 3.80899 167.5 13.3091 167.5 26.3091V100.809H175V8.80899C174 6.30901 169 0.309082 167.5 1.30906H213.5C219.167 1.30903 232.5 6.30899 232.5 19.309V108.809H214V21.309C214 16.3091 211.8 7.10899 203 6.30899H182V108.809H149V19.809C148.333 15.309 144.4 6.30899 134 6.30899C121 6.30899 113.5 16.809 109.5 28.809C107.5 21.1423 100.3 5.90899 87.5 6.30899C71.5 6.80899 69.5 15.8091 70 26.3091Z" stroke="#C8A668"/>
</svg>
