<svg width="170" height="166" viewBox="0 0 170 166" fill="none" xmlns="http://www.w3.org/2000/svg">
<path fill-rule="evenodd" clip-rule="evenodd" d="M22.8973 107.961C30.3973 108.524 29.8973 101.961 22.8973 100.961C12.4973 98.961 9.06392 81.4611 8.39725 72.9612C7.56392 54.2945 7.89728 16.2612 17.8973 9.46118C27.8973 2.66118 33.3973 7.96118 33.3973 14.4612V96.4612C33.3973 103.961 38.8973 107.961 45.3973 107.961H57.8973C53.8973 112.961 48.2544 134.461 60.3973 151.461C74.3972 171.061 96.4473 165.461 105.897 158.461C116.697 150.461 119.731 135.128 119.897 128.461C119.897 124.961 114.038 122.961 113.897 128.461C113.397 147.961 94.3972 155.461 77.3972 145.461C63.7972 137.461 65.0639 117.795 67.3972 108.961C82.9972 108.561 90.5639 103.461 92.3972 100.961C101.197 88.9612 93.8973 82.0279 87.3972 82.4612C75.3972 83.2612 65.8973 94.6279 62.3973 100.461C55.3973 100.461 52.3973 97.9612 52.3973 93.9612V28.4612C53.5973 10.0612 43.8973 1.52241 38.3973 0.961182C16.4272 -1.28066 11.8922 6.12713 9.61667 9.84418C9.35463 10.2722 9.12255 10.6513 8.89726 10.9611C4.89728 16.4612 -1.10274 35.4611 0.897259 70.9611C2.49726 99.3611 16.2306 107.461 22.8973 107.961ZM70.3973 100.961C68.3973 97.4612 81.3973 87.9612 89.3973 89.9612C92.8973 97.4612 74.8973 104.961 70.3973 100.961Z" fill="#C8A668"/>
<path fill-rule="evenodd" clip-rule="evenodd" d="M70.8972 24.9612C70.3972 32.4612 62.8973 28.9612 62.8973 24.9612C64.4972 9.36118 69.8031 3.93184 76.8972 1.96122C94.8972 -3.03882 107.731 5.96122 111.897 11.4612C114.397 7.46118 123.897 -2.5388 145.897 1.4612C163.497 4.6612 168.897 21.9612 168.897 29.9612V108.461H149.397V24.4612C149.397 17.4611 148.897 6.4612 133.397 6.4612C118.389 6.4612 112.064 22.9612 110.397 29.9612C108.564 21.4612 101.197 4.8612 86.3972 6.4612C71.5972 8.0612 70.3972 19.4612 70.8972 24.9612Z" fill="#C8A668"/>
<path d="M33.3973 14.4612C33.3973 7.96118 27.8973 2.66118 17.8973 9.46118C7.89728 16.2612 7.56392 54.2945 8.39725 72.9612C9.06392 81.4611 12.4973 98.961 22.8973 100.961C29.8973 101.961 30.3973 108.524 22.8973 107.961C16.2306 107.461 2.49726 99.3611 0.897259 70.9611C-1.10274 35.4611 4.89728 16.4612 8.89726 10.9611C9.12255 10.6513 9.35463 10.2722 9.61667 9.84418C11.8922 6.12713 16.4272 -1.28066 38.3973 0.961182C43.8973 1.52241 53.5973 10.0612 52.3973 28.4612V93.9612C52.3973 97.9612 55.3973 100.461 62.3973 100.461C65.8973 94.6279 75.3972 83.2612 87.3972 82.4612C93.8973 82.0279 101.197 88.9612 92.3972 100.961C90.5639 103.461 82.9972 108.561 67.3972 108.961C65.0639 117.795 63.7972 137.461 77.3972 145.461C94.3972 155.461 113.397 147.961 113.897 128.461C114.038 122.961 119.897 124.961 119.897 128.461C119.731 135.128 116.697 150.461 105.897 158.461C96.4473 165.461 74.3972 171.061 60.3973 151.461C48.2544 134.461 53.8973 112.961 57.8973 107.961H45.3973C38.8973 107.961 33.3973 103.961 33.3973 96.4612M33.3973 14.4612V96.4612M33.3973 14.4612C33.3973 40.4617 33.3973 89.6494 33.3973 96.4612M70.3973 100.961C68.3973 97.4612 81.3973 87.9612 89.3973 89.9612C92.8973 97.4612 74.8973 104.961 70.3973 100.961ZM70.8972 24.9612C70.3972 32.4612 62.8973 28.9612 62.8973 24.9612C64.4972 9.36118 69.8031 3.93184 76.8972 1.96122C94.8972 -3.03882 107.731 5.96122 111.897 11.4612C114.397 7.46118 123.897 -2.5388 145.897 1.4612C163.497 4.6612 168.897 21.9612 168.897 29.9612V108.461H149.397V24.4612C149.397 17.4611 148.897 6.4612 133.397 6.4612C118.389 6.4612 112.064 22.9612 110.397 29.9612C108.564 21.4612 101.197 4.8612 86.3972 6.4612C71.5972 8.0612 70.3972 19.4612 70.8972 24.9612Z" stroke="#C8A668"/>
</svg>
