<svg width="165" height="110" viewBox="0 0 165 110" fill="none" xmlns="http://www.w3.org/2000/svg">
<path fill-rule="evenodd" clip-rule="evenodd" d="M15.6331 106.721C24.0331 110.721 26.1331 105.721 26.1331 102.721C15.6331 100.721 13.1332 94.2208 11.6331 90.2208C9.4664 80.7208 5.73306 57.6208 8.13306 41.2208C11.1331 20.7208 14.7721 6.22083 30.1332 6.22083C41.1333 6.22083 44.6331 10.7208 44.6331 14.7208L45.1331 66.2208C33.1332 68.2208 26.133 79.2208 26.1331 88.7208C26.1331 99.2208 27.6331 109.721 43.1331 108.721C55.5331 107.921 62.6331 93.2208 62.6331 86.7208V74.7208C69.6332 77.7208 81.6332 100.221 81.6332 100.221C86.1332 108.721 104.633 110.721 116.633 106.221C124.197 103.385 130.133 93.2208 130.133 87.2208C130.007 72.8008 130.072 47.1486 130.111 31.9037C130.123 27.0618 130.133 23.2697 130.133 21.2208C130.133 13.9418 125.733 9.96278 122.899 7.39985C122.424 6.96997 121.992 6.57992 121.633 6.22083C138.633 6.22083 145.133 12.7208 145.133 19.2208V108.721H163.633L164.133 65.7208L163.633 21.7208C163.633 10.2208 148.633 0.72079 143.133 0.720825H105.133C101.133 0.720825 102.133 5.22083 105.133 5.22083C116.633 5.22083 122.633 17.2208 122.633 23.7208V87.2208C122.633 98.7208 106.966 101.554 101.133 100.721C92.1332 100.721 87.1332 87.7208 87.1332 87.7208C83.1332 77.7208 69.6331 69.3875 62.6331 66.2208V14.7208C59.0331 4.72083 49.1331 1.22085 44.6331 0.720861C42.9664 0.554194 37.2331 0.320861 27.6331 0.720861C18.0331 1.12086 12.4331 8.22083 10.1331 11.7209C-0.216269 27.4698 0.368136 55.3672 0.58866 65.8943C0.613179 67.0647 0.633199 68.0204 0.633194 68.7208C0.633139 76.2375 3.1331 100.769 15.6331 106.721ZM45.1331 73.7208V91.7208C45.6332 99.7208 37.6332 104.221 33.6331 97.2208C31.1332 93.2208 29.6332 76.2208 45.1331 73.7208Z" fill="#C8A668" stroke="#C8A668"/>
</svg>
