<svg width="241" height="110" viewBox="0 0 241 110" fill="none" xmlns="http://www.w3.org/2000/svg">
<path d="M24.5286 109.05C30.2819 108.283 30.0587 103.011 28.2673 102.578C28.1117 102.541 27.9441 102.537 27.7863 102.51C12.5181 99.9352 11.5181 89.0136 9.52856 82.0503C3.52856 45.0503 9.52856 16.0503 19.5286 8.55029C27.5286 2.55029 34.0286 8.05029 34.0286 11.0503V87.5503C33.5286 98.0503 47.5286 109.05 54.5286 109.05L96.5286 108.55C109.529 108.55 116.529 90.5503 116.529 85.0503C117.029 65.0503 117.029 23.0503 117.029 23.0503C117.029 13.5503 118.029 10.0503 119.029 8.55029C119.996 7.09879 122.229 6.55029 129.029 6.55029C135.829 6.55029 137.195 10.5503 137.029 12.5503V108.05C137.029 108.603 137.476 109.05 138.029 109.05H170.536C171.085 109.05 171.532 108.625 171.535 108.076C171.691 84.6919 171.529 36.7842 171.529 24.5503C171.529 16.0503 175.529 6.55029 181.529 6.55029H205.529C217.529 6.55029 220.029 14.5503 220.029 20.0503V108.05C220.029 108.603 220.476 109.05 221.029 109.05H238.544C239.09 109.05 239.535 108.63 239.543 108.084C239.852 86.0097 239.529 39.9424 239.529 24.5503C239.529 8.55029 226.529 1.05029 221.029 1.05029L182.029 1.55029C170.029 1.55029 164.029 18.5503 164.529 30.0503V100.05C164.529 100.603 164.081 101.05 163.529 101.05H158.039C157.482 101.05 157.033 100.611 157.038 100.055C157.204 82.7402 157.421 45.2732 157.029 26.0503C156.629 6.45029 153.529 2.05029 148.529 1.55029C148.529 1.55029 143.313 1.05029 128.029 1.05029C112.529 1.05029 110.029 7.55029 110.029 14.5503C110.029 14.5503 109.529 72.2791 109.529 84.0503C109.529 96.0503 98.5286 101.05 94.5286 101.05L84.7786 101.3L75.0286 101.55C60.5787 101.55 53.0286 92.5503 53.0286 86.5503C52.8619 77.217 52.6286 54.2503 53.0286 33.0503C53.4286 11.8503 46.1952 4.21697 42.5286 3.05031C39.5286 1.71698 31.3286 -0.549689 22.5286 1.05031C13.7286 2.65031 7.8619 13.717 6.02856 19.0503C4.02856 23.3836 0.128564 38.4503 0.528564 64.0503C1.02856 96.0503 17.0286 110.05 24.5286 109.05Z" fill="#C8A668" stroke="#C8A668"/>
</svg>
