<svg width="170" height="110" viewBox="0 0 170 110" fill="none" xmlns="http://www.w3.org/2000/svg">
<path d="M20.2052 108.31C32.2052 110.31 28.7052 99.8097 22.7052 100.81C7.20517 100.81 6.2052 54.3097 6.7052 42.3097C7.2052 30.3097 12.7052 9.30966 21.7052 5.80966C28.9052 3.00966 33.2052 8.80974 33.2052 12.8097V97.8097C33.2052 105.31 42.2052 108.31 47.2052 108.31H109.205C116.705 108.31 115.205 100.31 109.705 100.31C100.705 100.31 100.205 93.8097 94.7052 87.3097C90.3052 82.1097 80.5385 81.4763 76.2052 81.8097C71.2052 81.8097 73.7052 87.3097 76.2052 87.3097C87.0052 88.9097 93.0385 96.643 94.7052 100.31L59.2052 100.81C54.0052 100.81 51.7052 100.81 51.7052 93.8097L51.2052 18.8097C51.2052 9.30973 45.2052 0.809732 37.2052 0.809732H21.7052C17.7052 0.809732 9.10517 8.00972 4.70517 18.8097C0.305172 29.6097 0.205172 59.3097 0.705172 72.8097C0.705172 98.8097 13.8719 107.31 20.2052 108.31Z" fill="#C8A668"/>
<path d="M70.5 25.8097C70.5 32.3098 62.35 31.3098 63 24.8098C64.75 7.30981 70 2.30981 87 0.809814C100.6 -0.390186 109.667 7.30976 112.5 11.3097C114.5 6.9764 123.4 -1.19027 143 0.809732C161.5 2.69749 169 20.8098 169 29.3097V108.81H149.5V21.3097C149.5 16.8098 147 7.1807 133.5 6.30973C122 5.5678 113 21.3097 110.5 29.3097C108.5 23.8097 102.5 4.30973 85.5 6.30973C71.9 7.90973 69.6667 19.9764 70.5 25.8097Z" fill="#C8A668"/>
<path d="M20.2052 108.31C32.2052 110.31 28.7052 99.8097 22.7052 100.81C7.20517 100.81 6.2052 54.3097 6.7052 42.3097C7.2052 30.3097 12.7052 9.30966 21.7052 5.80966C28.9052 3.00966 33.2052 8.80974 33.2052 12.8097V97.8097C33.2052 105.31 42.2052 108.31 47.2052 108.31H109.205C116.705 108.31 115.205 100.31 109.705 100.31C100.705 100.31 100.205 93.8097 94.7052 87.3097C90.3052 82.1097 80.5385 81.4763 76.2052 81.8097C71.2052 81.8097 73.7052 87.3097 76.2052 87.3097C87.0052 88.9097 93.0385 96.643 94.7052 100.31L59.2052 100.81C54.0052 100.81 51.7052 100.81 51.7052 93.8097L51.2052 18.8097C51.2052 9.30973 45.2052 0.809732 37.2052 0.809732H21.7052C17.7052 0.809732 9.10517 8.00972 4.70517 18.8097C0.305172 29.6097 0.205172 59.3097 0.705172 72.8097C0.705172 98.8097 13.8719 107.31 20.2052 108.31Z" stroke="#C8A668"/>
<path d="M70.5 25.8097C70.5 32.3098 62.35 31.3098 63 24.8098C64.75 7.30981 70 2.30981 87 0.809814C100.6 -0.390186 109.667 7.30976 112.5 11.3097C114.5 6.9764 123.4 -1.19027 143 0.809732C161.5 2.69749 169 20.8098 169 29.3097V108.81H149.5V21.3097C149.5 16.8098 147 7.1807 133.5 6.30973C122 5.5678 113 21.3097 110.5 29.3097C108.5 23.8097 102.5 4.30973 85.5 6.30973C71.9 7.90973 69.6667 19.9764 70.5 25.8097Z" stroke="#C8A668"/>
</svg>
