<svg width="300" height="110" viewBox="0 0 300 110" fill="none" xmlns="http://www.w3.org/2000/svg">
<path d="M20.2052 109.058C32.2052 111.058 28.7052 100.558 22.7052 101.558C7.20517 101.558 6.2052 55.0583 6.7052 43.0583C7.2052 31.0583 12.7052 10.0583 21.7052 6.55828C28.9052 3.75828 33.2052 9.55836 33.2052 13.5583V98.5584C33.2052 106.058 42.2052 109.058 47.2052 109.058H109.205C116.705 109.058 115.205 101.058 109.705 101.058C100.705 101.058 100.205 94.5583 94.7052 88.0583C90.3052 82.8583 80.5385 82.225 76.2052 82.5583C71.2052 82.5583 73.7052 88.0583 76.2052 88.0583C87.0052 89.6583 93.0385 97.3916 94.7052 101.058L59.2052 101.558C54.0052 101.558 51.7052 101.558 51.7052 94.5583L51.2052 19.5583C51.2052 10.0584 45.2052 1.55835 37.2052 1.55835H21.7052C17.7052 1.55835 9.10517 8.75834 4.70517 19.5583C0.305172 30.3583 0.205172 60.0583 0.705172 73.5583C0.705172 99.5583 13.8719 108.058 20.2052 109.058Z" fill="#C8A668"/>
<path d="M70.2052 24.5584C70.7052 31.0584 62.7052 29.5584 62.7052 24.5584C62.7052 8.95828 72.5385 3.05842 78.2052 2.05844C98.2052 -3.14156 108.539 7.3916 111.205 13.0583C113.685 2.65826 129.405 0.0582074 138.705 0.558223C156.705 2.05822 167.705 17.0582 167.205 27.0582V101.058H175.705L174.705 9.05822C174.705 4.55822 168.705 2.05822 167.705 1.05835H191.705H212.705C225.105 1.05835 232.205 12.0582 232.205 18.5584L233.205 100.558H241.205V9.55822C240.805 5.55822 236.705 2.55822 234.205 1.05835H277.705C292.705 1.05835 299.205 13.5579 299.205 25.0581V109.058H280.205V23.0584C280.705 10.5582 273.705 7.05835 268.205 7.05835L248.705 6.55822V109.058H214.205V20.5582C214.705 12.0582 208.705 7.05835 202.205 7.05835H182.705V108.058H149.205V19.0582C149.205 10.0584 138.205 6.05822 132.705 6.05822C119.205 5.05822 111.705 24.0584 109.705 29.5584C107.705 20.0584 101.205 10.5584 95.2052 7.55835C90.4052 5.15835 83.2052 6.22502 80.2052 7.05835C70.2052 10.6584 70.2052 19.5583 70.2052 24.5584Z" fill="#C8A668"/>
<path d="M20.2052 109.058C32.2052 111.058 28.7052 100.558 22.7052 101.558C7.20517 101.558 6.2052 55.0583 6.7052 43.0583C7.2052 31.0583 12.7052 10.0583 21.7052 6.55828C28.9052 3.75828 33.2052 9.55836 33.2052 13.5583V98.5584C33.2052 106.058 42.2052 109.058 47.2052 109.058H109.205C116.705 109.058 115.205 101.058 109.705 101.058C100.705 101.058 100.205 94.5583 94.7052 88.0583C90.3052 82.8583 80.5385 82.225 76.2052 82.5583C71.2052 82.5583 73.7052 88.0583 76.2052 88.0583C87.0052 89.6583 93.0385 97.3916 94.7052 101.058L59.2052 101.558C54.0052 101.558 51.7052 101.558 51.7052 94.5583L51.2052 19.5583C51.2052 10.0584 45.2052 1.55835 37.2052 1.55835H21.7052C17.7052 1.55835 9.10517 8.75834 4.70517 19.5583C0.305172 30.3583 0.205172 60.0583 0.705172 73.5583C0.705172 99.5583 13.8719 108.058 20.2052 109.058Z" stroke="#C8A668"/>
<path d="M70.2052 24.5584C70.7052 31.0584 62.7052 29.5584 62.7052 24.5584C62.7052 8.95828 72.5385 3.05842 78.2052 2.05844C98.2052 -3.14156 108.539 7.3916 111.205 13.0583C113.685 2.65826 129.405 0.0582074 138.705 0.558223C156.705 2.05822 167.705 17.0582 167.205 27.0582V101.058H175.705L174.705 9.05822C174.705 4.55822 168.705 2.05822 167.705 1.05835H191.705H212.705C225.105 1.05835 232.205 12.0582 232.205 18.5584L233.205 100.558H241.205V9.55822C240.805 5.55822 236.705 2.55822 234.205 1.05835H277.705C292.705 1.05835 299.205 13.5579 299.205 25.0581V109.058H280.205V23.0584C280.705 10.5582 273.705 7.05835 268.205 7.05835L248.705 6.55822V109.058H214.205V20.5582C214.705 12.0582 208.705 7.05835 202.205 7.05835H182.705V108.058H149.205V19.0582C149.205 10.0584 138.205 6.05822 132.705 6.05822C119.205 5.05822 111.705 24.0584 109.705 29.5584C107.705 20.0584 101.205 10.5584 95.2052 7.55835C90.4052 5.15835 83.2052 6.22502 80.2052 7.05835C70.2052 10.6584 70.2052 19.5583 70.2052 24.5584Z" stroke="#C8A668"/>
</svg>
