<svg width="171" height="110" viewBox="0 0 171 110" fill="none" xmlns="http://www.w3.org/2000/svg">
<path fill-rule="evenodd" clip-rule="evenodd" d="M28.2327 108.022C34.234 107.622 35.2327 100.022 28.2327 100.022C18.2327 100.022 8.23269 85.522 7.23269 50.022C6.51438 24.522 19.8994 8.18865 26.7327 5.02199H43.2327C41.2327 7.02199 30.4472 21.0673 28.7327 27.522C20.2327 59.522 30.2327 86.022 35.2327 92.522C39.0788 97.522 54.2327 110.022 67.2327 108.022C78.1675 106.34 88.7327 97.022 92.7327 93.022L95.2327 100.022C103.733 113.022 118.233 108.522 123.233 102.522C127.816 97.022 129.496 90.022 123.233 81.522C117.633 73.922 104.566 76.3553 98.7327 78.522V21.022C98.7327 13.522 106.233 5.02199 112.233 5.02199H138.233C147.233 5.02199 151.233 14.022 151.233 18.022V108.522H169.733L170.233 22.522C170.733 8.02197 158.233 0.0219879 147.233 0.521988H111.733C101.733 0.521988 92.7327 15.022 92.7327 22.022V83.522C77.5327 102.722 62.566 101.189 57.2327 97.522C52.066 92.8553 42.0327 76.522 43.2327 48.522C44.7327 13.522 50.6104 6.96444 57.7327 5.02199C63.2327 3.52199 60.2327 0.521988 57.7327 0.521988H29.2327C16.7326 0.521988 5.99942 17.022 3.73269 25.522C0.799277 36.522 -1.76734 56.522 3.73269 81.022C8.18006 100.833 20.7327 108.522 28.2327 108.022ZM99.2327 88.022C100.518 85.022 106.233 81.822 112.233 83.022C118.233 84.222 121.233 90.022 121.233 93.022C121.233 96.522 118.033 101.322 109.233 100.522C100.433 99.722 97.7327 91.522 99.2327 88.022Z" fill="#C8A668"/>
<path d="M112.233 5.02199C106.233 5.02199 98.7327 13.522 98.7327 21.022V78.522C104.566 76.3553 117.633 73.922 123.233 81.522C129.496 90.022 127.816 97.022 123.233 102.522C118.233 108.522 103.733 113.022 95.2327 100.022L92.7327 93.022C88.7327 97.022 78.1675 106.34 67.2327 108.022C54.2327 110.022 39.0788 97.522 35.2327 92.522C30.2327 86.022 20.2327 59.522 28.7327 27.522C30.4472 21.0673 41.2327 7.02199 43.2327 5.02199H26.7327C19.8994 8.18865 6.51438 24.522 7.23269 50.022C8.23269 85.522 18.2327 100.022 28.2327 100.022C35.2327 100.022 34.234 107.622 28.2327 108.022C20.7327 108.522 8.18006 100.833 3.73269 81.022C-1.76734 56.522 0.799277 36.522 3.73269 25.522C5.99942 17.022 16.7326 0.521988 29.2327 0.521988H57.7327C60.2327 0.521988 63.2327 3.52199 57.7327 5.02199C50.6104 6.96444 44.7327 13.522 43.2327 48.522C42.0327 76.522 52.066 92.8553 57.2327 97.522C62.566 101.189 77.5327 102.722 92.7327 83.522V22.022C92.7327 15.022 101.733 0.521988 111.733 0.521988H147.233C158.233 0.0219879 170.733 8.02197 170.233 22.522L169.733 108.522H151.233V18.022C151.233 14.022 147.233 5.02199 138.233 5.02199M112.233 5.02199H138.233M112.233 5.02199C115.566 5.02199 126.233 5.02199 138.233 5.02199M99.2327 88.022C100.518 85.022 106.233 81.822 112.233 83.022C118.233 84.222 121.233 90.022 121.233 93.022C121.233 96.522 118.033 101.322 109.233 100.522C100.433 99.722 97.7327 91.522 99.2327 88.022Z" stroke="#C8A668"/>
</svg>
