<svg width="159" height="110" viewBox="0 0 159 110" fill="none" xmlns="http://www.w3.org/2000/svg">
<path d="M33.04 107.032V99.5316C22.24 104.332 15.54 92.0316 13.54 85.5316C9.87329 76.6982 4.03995 53.8316 10.0399 33.0316C16.0399 12.2316 30.0399 4.53159 35.5399 5.53159C19.0399 25.0316 31.0399 46.0316 42.5399 50.0316C36.5399 52.5316 28.0399 62.0316 28.0399 68.0316V86.0316C28.0399 94.5316 44.0399 107.532 52.5399 107.532H97.5399C109.04 107.532 119.54 90.5315 119.54 82.5316V13.0316C119.54 7.03159 124.04 5.03159 130.04 5.53159C137.64 5.13159 139.207 12.0316 139.04 15.5316V108.532H157.54V14.5317C157.54 1.53149 150.04 0.531657 141.54 0.531657H123.54C117.04 0.531657 112.54 6.53159 112.54 12.0316V84.5317C112.54 91.0316 102.54 100.032 97.0399 100.032H57.0399C47.5399 100.032 45.0399 87.0316 45.0399 75.5316C45.0399 59.5316 50.0399 54.5315 56.0399 54.5316H88.5399V46.5317H54.0399C46.0399 46.5316 45.5399 33.5316 46.0399 25.0316C46.0399 9.53159 50.5399 6.03166 54.0399 6.03166L86.0399 5.53159C91.0399 5.53152 90.5399 0.0315868 86.0399 0.531657H33.5399C23.5399 0.531657 7.471 12.5316 2.53995 34.5317C-3.96005 63.5317 6.53995 91.0317 13.54 101.032C19.14 109.032 28.8733 108.365 33.04 107.032Z" fill="#C8A668" stroke="#C8A668"/>
</svg>
