<svg width="166" height="109" viewBox="0 0 166 109" fill="none" xmlns="http://www.w3.org/2000/svg">
<path fill-rule="evenodd" clip-rule="evenodd" d="M25.2706 107.794C31.7706 106.794 28.2706 102.294 25.2706 101.794C16.2133 98.7746 14.9689 96.4996 12.5515 92.0804C12.1664 91.3765 11.7516 90.6181 11.2706 89.7937C7.77063 83.7937 4.27013 16.5083 17.7706 8.7937C28.2706 2.7937 33.104 9.2937 33.2706 12.7937V107.794H52.2706V69.2937C62.2706 69.2937 76.104 73.9604 81.7706 76.2937L82.2706 97.7937C81.7706 109.794 102.635 109.585 105.771 105.294C115.271 92.2937 99.604 76.627 89.7706 70.2937C89.6451 59.7481 89.7087 40.8684 89.7477 29.2823C89.7605 25.4871 89.7706 22.4744 89.7706 20.7937C89.7706 13.7937 96.7706 6.2937 99.7706 6.2937H134.271C142.271 6.2937 146.771 15.2937 146.271 20.2937V107.794L165.271 107.853V22.2937C165.271 7.2937 150.771 1.2937 146.271 1.2937H100.771C91.2706 1.2937 81.5888 17.2937 81.7706 21.7937C82.4373 38.2937 81.7706 67.7937 81.7706 67.7937C80.1706 66.5937 61.4373 63.2937 52.2706 61.7937V16.7937C52.2706 6.29369 44.2706 2.2937 40.2706 1.79369C25.4706 -1.40631 17.2483 2.06382 14.7706 4.2937C4.77063 13.2937 1.77061 29.627 1.2706 37.7937C-1.97887 80.9653 5.97722 94.399 7.93311 97.7015C8.0839 97.9561 8.19902 98.1505 8.2706 98.2937C9.2706 100.294 17.1203 109.048 25.2706 107.794ZM89.7706 79.7937V95.2937C89.7706 99.7937 97.7706 102.794 100.771 99.7937C103.771 96.2937 101.778 90.1355 96.7706 84.2937C93.7706 80.7937 90.2706 79.7937 89.7706 79.7937Z" fill="#C8A668"/>
<path d="M99.7706 6.2937C96.7706 6.2937 89.7706 13.7937 89.7706 20.7937C89.7706 22.4744 89.7605 25.4871 89.7477 29.2823C89.7087 40.8684 89.6451 59.7481 89.7706 70.2937C99.604 76.627 115.271 92.2937 105.771 105.294C102.635 109.585 81.7706 109.794 82.2706 97.7937L81.7706 76.2937C76.104 73.9604 62.2706 69.2937 52.2706 69.2937V107.794H33.2706V12.7937C33.104 9.2937 28.2706 2.7937 17.7706 8.7937C4.27013 16.5083 7.77063 83.7937 11.2706 89.7937C11.7516 90.6181 12.1664 91.3765 12.5515 92.0804C14.9689 96.4996 16.2133 98.7746 25.2706 101.794C28.2706 102.294 31.7706 106.794 25.2706 107.794C17.1203 109.048 9.2706 100.294 8.2706 98.2937C8.19902 98.1505 8.0839 97.9561 7.93311 97.7015C5.97722 94.399 -1.97887 80.9653 1.2706 37.7937C1.77061 29.627 4.77063 13.2937 14.7706 4.2937C17.2483 2.06382 25.4706 -1.40631 40.2706 1.79369C44.2706 2.2937 52.2706 6.29369 52.2706 16.7937V61.7937C61.4373 63.2937 80.1706 66.5937 81.7706 67.7937C81.7706 67.7937 82.4373 38.2937 81.7706 21.7937C81.5888 17.2937 91.2706 1.2937 100.771 1.2937H146.271C150.771 1.2937 165.271 7.2937 165.271 22.2937V107.853L146.271 107.794V20.2937C146.771 15.2937 142.271 6.2937 134.271 6.2937M99.7706 6.2937H134.271M99.7706 6.2937C109.271 6.2937 126.271 6.2937 134.271 6.2937M89.7706 79.7937V95.2937C89.7706 99.7937 97.7706 102.794 100.771 99.7937C103.771 96.2937 101.778 90.1355 96.7706 84.2937C93.7706 80.7937 90.2706 79.7937 89.7706 79.7937Z" stroke="#C8A668"/>
</svg>
