<svg width="161" height="111" viewBox="0 0 161 111" fill="none" xmlns="http://www.w3.org/2000/svg">
<path fill-rule="evenodd" clip-rule="evenodd" d="M21.1275 109.308C30.6275 112.308 29.6275 100.808 21.1275 100.308C9.62747 95.3081 8.12747 75.8082 7.62747 49.3082C7.12747 22.8082 18.1275 5.3082 25.6275 5.3082C31.6275 5.3082 33.6275 10.3081 33.6275 14.3082V85.3081C33.6275 100.808 46.1275 109.308 55.1275 109.308H92.1275C104.127 109.308 99.1275 100.308 92.1275 100.308C75.3275 95.5081 71.1275 69.6415 71.1275 57.3082C114.231 50.356 120.56 58.8419 128.661 69.7028C129.299 70.5586 129.948 71.4292 130.627 72.3081C139.127 83.3081 140.461 99.8082 140.127 108.308H160.127C161.127 97.3082 155.127 71.8082 137.127 57.3082C122.727 45.7082 96.7941 45.8082 85.6275 47.3082C94.0275 39.3082 137.461 27.3082 158.627 21.8082C145.627 -4.69191 111.627 -0.191803 98.6275 2.8082C85.6275 5.8082 71.6275 15.8082 66.6275 32.3082C63.0014 44.2743 63.5298 57.1443 63.9915 68.3854C64.0391 69.5446 64.0859 70.6864 64.1275 71.8081C64.6275 85.3081 74.6275 96.8082 79.1275 100.308H61.6275C53.6275 100.308 52.6275 93.808 52.6275 85.3081V27.8082C53.1275 14.8082 48.1275 1.30826 40.6275 1.30826H22.6275C13.6275 1.30826 6.12747 17.8082 6.12747 17.8082C0.92746 28.2082 0.127472 55.1415 0.627472 67.3082C0.627472 94.8082 13.9608 106.642 21.1275 109.308ZM70.6275 48.3082C85.9608 38.6415 123.127 18.7082 149.127 16.3082C145.627 12.4749 130.627 7.1082 98.6275 16.3082C89.2941 20.3082 70.6275 32.3082 70.6275 48.3082Z" fill="#C8A668"/>
<path d="M79.1275 100.308C74.6275 96.8082 64.6275 85.3081 64.1275 71.8081C64.0859 70.6864 64.0391 69.5446 63.9915 68.3854C63.5298 57.1443 63.0014 44.2743 66.6275 32.3082C71.6275 15.8082 85.6275 5.8082 98.6275 2.8082C111.627 -0.191803 145.627 -4.69191 158.627 21.8082C137.461 27.3082 94.0275 39.3082 85.6275 47.3082C96.7941 45.8082 122.727 45.7082 137.127 57.3082C155.127 71.8082 161.127 97.3082 160.127 108.308H140.127C140.461 99.8082 139.127 83.3081 130.627 72.3081C129.948 71.4292 129.299 70.5586 128.661 69.7028C120.56 58.8419 114.231 50.356 71.1275 57.3082C71.1275 69.6415 75.3275 95.5081 92.1275 100.308C99.1275 100.308 104.127 109.308 92.1275 109.308H55.1275C46.1275 109.308 33.6275 100.808 33.6275 85.3081V14.3082C33.6275 10.3081 31.6275 5.3082 25.6275 5.3082C18.1275 5.3082 7.12747 22.8082 7.62747 49.3082C8.12747 75.8082 9.62747 95.3081 21.1275 100.308C29.6275 100.808 30.6275 112.308 21.1275 109.308C13.9608 106.642 0.627472 94.8082 0.627472 67.3082C0.127472 55.1415 0.92746 28.2082 6.12747 17.8082C6.12747 17.8082 13.6275 1.30826 22.6275 1.30826H40.6275C48.1275 1.30826 53.1275 14.8082 52.6275 27.8082V85.3081C52.6275 93.808 53.6275 100.308 61.6275 100.308M79.1275 100.308H61.6275M79.1275 100.308C75.7941 100.308 68.4275 100.308 61.6275 100.308M70.6275 48.3082C85.9608 38.6415 123.127 18.7082 149.127 16.3082C145.627 12.4749 130.627 7.1082 98.6275 16.3082C89.2941 20.3082 70.6275 32.3082 70.6275 48.3082Z" stroke="#C8A668"/>
</svg>
