<svg width="161" height="109" viewBox="0 0 161 109" fill="none" xmlns="http://www.w3.org/2000/svg">
<path d="M33.9412 19L26.4412 5.5H38.9412C50.4412 5.5 52.9412 28 50.4412 44C48.4412 56.8 32.4412 67.5 23.9412 70.5C38.1078 77 67.7961 91.4219 74.4412 95C80.9412 98.5 84.4145 95.1714 84.4412 92C84.6078 72.1667 84.4412 31.3091 84.4412 22.5C84.4412 13.5 90.9412 6 94.9412 6C102.941 5.83333 117.232 6 126.441 6C135.941 6 140.941 12 140.941 19V108H160.441V23.5C160.941 8 146.774 1 141.441 1H95.4412C84.9412 1 77.4412 15.5 77.4412 24V88.5L45.4412 72.5C50.4412 70 59.4412 62.2 63.4412 57C68.4412 50.5 69.9412 45.5 69.9412 24C69.9412 6.8 54.9412 1.83333 47.4412 1.5L2.94116 0.5C-0.558844 0.5 -0.0588439 4 2.94116 4C7.94116 4 12.9412 12 14.9412 14C16.9412 16 33.9412 19 33.9412 19Z" fill="#C8A668" stroke="#C8A668"/>
</svg>
