<svg width="160" height="110" viewBox="0 0 160 110" fill="none" xmlns="http://www.w3.org/2000/svg">
<path d="M25.893 108C33.8931 108.5 35.3931 100 28.893 101C18.8931 101 11.3931 88 7.89304 71C4.76254 55.7947 6.89306 15.4999 21.393 9.49997C26.685 7.31022 34.5597 6.16664 37.893 5.99997C26.393 13.5 21.393 33.9998 21.393 43C21.393 53.9998 19.3931 76 32.893 93C46.393 110 80.3931 110.5 93.393 107.5C106.393 104.5 116.893 95.4998 121.893 84.4998C126.893 73.4998 126.393 54.509 126.393 40.9998C126.393 23.4998 117.893 13.1664 113.393 5.99976L131.893 6.49976C139.893 6.49976 141.393 18.9998 141.393 26L140.393 108.5H158.893V27.4998C158.893 7.49954 145.393 0.5 138.393 0.5H93.893C90.3931 0.5 90.8982 5.32389 93.893 5.49997C102.393 5.99976 106.893 10.4998 106.893 10.4998C119.704 15.9998 127.156 73.9998 109.893 90C91.0117 107.5 64.3931 103 53.893 95C41.8931 85.8574 36.8931 66.5 39.893 34.5C42.893 2.49998 58.393 5.99997 58.393 5.99997C64.8931 5.99997 61.3931 1.49976 58.393 1.49976H30.393C15.8931 1.49976 10.8637 9.99992 6.39304 19.5C2.39306 27.9999 -0.60694 31.9999 0.893044 66.5C1.82719 87.9855 15.4016 107.344 25.893 108Z" fill="#C8A668" stroke="#C8A668"/>
</svg>
