<svg width="239" height="110" viewBox="0 0 239 110" fill="none" xmlns="http://www.w3.org/2000/svg">
<path d="M21.9461 108.612C32.0841 108.612 31.4462 101.112 22.4462 101.112C7.2672 101.112 6.27948 67.2788 7.44616 53.6121C5.44616 27.6121 13.4462 11.1121 19.9462 7.11215C28.9462 2.61215 33.4462 9.11215 33.4462 15.6121V89.1121C33.4462 99.6121 43.9462 108.112 51.9462 108.112H94.4462C101.446 108.112 98.9462 100.112 94.4462 100.612C82.0462 100.612 76.4462 86.6121 76.4462 86.6121C67.9462 74.1122 66.6397 37.1122 75.4462 17.6121C80.5525 6.30527 101.279 5.11215 111.446 6.11215C125.046 6.11215 126.446 18.1121 125.446 24.1121V86.1121C125.446 102.112 138.446 107.779 144.946 108.612L179.946 109.112C192.946 109.612 199.446 94.1122 199.446 86.1121C199.613 65.9455 199.446 23.4212 199.446 14.6121C199.446 6.11215 205.946 6.11215 209.946 6.11215C218.446 6.11215 218.446 9.61218 218.446 14.6121L218.946 108.612H238.446C238.446 84.2788 237.946 31.7122 237.946 16.1122C237.946 5.11222 232.446 0.612089 223.946 0.612089H202.946C193.446 0.612089 192.446 12.1121 192.446 16.6121C192.279 36.4454 192.446 76.5038 192.446 86.1121C192.446 96.6121 184.446 100.112 178.946 100.112H157.446C148.246 100.112 145.113 90.9455 144.946 86.1121L144.446 21.1121C144.446 6.11215 127.28 0.778774 119.946 0.612089H111.446C96.9462 0.112137 72.0462 0.31205 66.4462 23.112C60.8462 45.912 63.6128 73.4455 65.9462 82.6121C67.2189 87.6121 75.7795 98.1121 79.4462 100.612H64.4462C53.6462 100.612 51.6128 93.9454 51.9462 90.6121V23.1121C51.9462 8.61214 43.4462 0.612089 37.4462 0.612089H23.9462C14.9462 0.612089 3.50866 13.1121 1.94617 28.1121C-0.55383 52.1121 0.946143 42.1081 0.946155 73.1121C0.946163 94.1122 13.9462 108.612 21.9461 108.612Z" fill="#C8A668" stroke="#C8A668"/>
</svg>
