<svg width="170" height="110" viewBox="0 0 170 110" fill="none" xmlns="http://www.w3.org/2000/svg">
<path fill-rule="evenodd" clip-rule="evenodd" d="M20.1928 108.715C29.1928 109.215 26.1928 101.215 20.1928 100.215C6.69281 93.8647 4.80841 68.6748 8.1928 38.2151C10.6928 15.7148 20.1928 6.21484 28.1928 6.21484C44.1928 6.21484 44.6928 11.2148 44.6928 18.7151V66.715C44.1373 66.8859 43.5454 67.0532 42.9265 67.228C36.304 69.099 26.6074 71.8385 25.6928 89.2149C25.0056 102.272 33.2711 111.253 44.6928 108.715C62.6928 104.715 62.6928 85.7147 62.6928 74.7149C69.4928 78.3148 76.6928 90.7151 79.6928 96.715C84.4427 106.215 98.3595 109.882 106.693 109.215C122.193 109.215 130.193 93.2147 130.193 86.7149V13.2151C130.193 6.41505 137.193 5.71505 140.693 6.21505C149.768 5.8369 149.728 11.536 149.696 15.9619C149.695 16.2176 149.693 16.4691 149.693 16.7148V63.2148V109.215H168.693C168.818 90.4875 168.755 55.8827 168.716 34.1457C168.703 26.8653 168.693 21.0284 168.693 17.7151C168.693 6.21505 163.193 1.21504 156.193 1.21504H138.193C124.193 1.21504 122.693 11.2146 122.693 15.2148V89.715C122.693 92.7149 117.193 98.215 107.193 100.215C97.1928 102.215 88.1928 93.2149 84.6928 84.2149C81.6549 76.4031 69.3595 69.215 62.6928 66.715C62.9208 59.6463 62.8369 46.1618 62.7611 33.986C62.7261 28.363 62.6928 23.019 62.6928 18.7151C62.6928 7.21486 52.6928 0.714877 42.6928 0.714877C42.6928 0.714877 25.6928 -0.696485 18.1928 3.71503C10.6928 8.12655 3.69281 23.2151 2.69281 30.2151C-0.30718 42.2151 0.192802 59.215 1.6928 80.215C2.8928 97.0151 14.6928 108.409 20.1928 108.715ZM44.6928 72.715V94.7149C44.6928 101.215 32.6928 105.715 32.6928 91.715C32.6928 77.3071 38.7411 74.9958 43.6092 73.1354C43.9782 72.9944 44.3405 72.856 44.6928 72.715Z" fill="#C8A668"/>
<path d="M130.193 86.7149C130.193 93.2147 122.193 109.215 106.693 109.215C98.3595 109.882 84.4427 106.215 79.6928 96.715C76.6928 90.7151 69.4928 78.3148 62.6928 74.7149C62.6928 85.7147 62.6928 104.715 44.6928 108.715C33.2711 111.253 25.0056 102.272 25.6928 89.2149C26.6074 71.8385 36.304 69.099 42.9265 67.228C43.5454 67.0532 44.1373 66.8859 44.6928 66.715V18.7151C44.6928 11.2148 44.1928 6.21484 28.1928 6.21484C20.1928 6.21484 10.6928 15.7148 8.1928 38.2151C4.80841 68.6748 6.69281 93.8647 20.1928 100.215C26.1928 101.215 29.1928 109.215 20.1928 108.715C14.6928 108.409 2.8928 97.0151 1.6928 80.215C0.192802 59.215 -0.30718 42.2151 2.69281 30.2151C3.69281 23.2151 10.6928 8.12655 18.1928 3.71503C25.6928 -0.696485 42.6928 0.714877 42.6928 0.714877C52.6928 0.714877 62.6928 7.21486 62.6928 18.7151C62.6928 23.019 62.7261 28.363 62.7611 33.986C62.8369 46.1618 62.9208 59.6463 62.6928 66.715C69.3595 69.215 81.6549 76.4031 84.6928 84.2149C88.1928 93.2149 97.1928 102.215 107.193 100.215C117.193 98.215 122.693 92.7149 122.693 89.715V15.2148C122.693 11.2146 124.193 1.21504 138.193 1.21504M130.193 86.7149V13.2151M130.193 86.7149C130.193 64.0482 130.193 20.0151 130.193 13.2151M130.193 13.2151C130.193 6.41505 137.193 5.71505 140.693 6.21505C149.768 5.8369 149.728 11.536 149.696 15.9619C149.695 16.2176 149.693 16.4691 149.693 16.7148V63.2148V109.215H168.693C168.818 90.4875 168.755 55.8827 168.716 34.1457C168.703 26.8653 168.693 21.0284 168.693 17.7151C168.693 6.21505 163.193 1.21504 156.193 1.21504M156.193 1.21504H138.193M156.193 1.21504C154.526 1.21504 150.993 1.21504 138.193 1.21504M44.6928 72.715V94.7149C44.6928 101.215 32.6928 105.715 32.6928 91.715C32.6928 77.3071 38.7411 74.9958 43.6092 73.1354C43.9782 72.9944 44.3405 72.856 44.6928 72.715Z" stroke="#C8A668"/>
</svg>
